<?xml version="1.0" encoding="UTF-8" standalone="no"?>
<svg
   xmlns:dc="http://purl.org/dc/elements/1.1/"
   xmlns:cc="http://creativecommons.org/ns#"
   xmlns:rdf="http://www.w3.org/1999/02/22-rdf-syntax-ns#"
   xmlns:svg="http://www.w3.org/2000/svg"
   xmlns="http://www.w3.org/2000/svg"
   viewBox="0 0 152.93333 152.93333"
   height="152.93333"
   width="152.93333"
   xml:space="preserve"
   id="svg2"
   version="1.1"><metadata
     id="metadata8"><rdf:RDF><cc:Work
         rdf:about=""><dc:format>image/svg+xml</dc:format><dc:type
           rdf:resource="http://purl.org/dc/dcmitype/StillImage" /></cc:Work></rdf:RDF></metadata><defs
     id="defs6" /><g
     transform="matrix(1.3333333,0,0,-1.3333333,0,152.93333)"
     id="g10"><g
       transform="scale(0.1)"
       id="g12"><path
         id="path14"
         style="fill:#f7d51f;fill-opacity:1;fill-rule:evenodd;stroke:none"
         d="M 0,97.207 C 0,43.418 43.3984,0 97.1875,0 H 1049.77 c 53.75,0 97.18,43.418 97.18,97.207 v 952.583 c 0,53.76 -43.43,97.18 -97.18,97.18 H 97.1875 C 43.3984,1146.97 0,1103.55 0,1049.79" /><path
         id="path16"
         style="fill:#261c1d;fill-opacity:1;fill-rule:evenodd;stroke:none"
         d="M 25.0391,97.8516 V 1050.43 c 0,39.51 31.7578,71.91 71.914,71.91 H 1049.53 c 39.53,0 71.95,-32.4 71.95,-71.91 V 97.8516 c 0,-40.1758 -32.42,-71.8946 -71.95,-71.8946 H 96.9531 c -40.1562,0 -71.914,31.7188 -71.914,71.8946 m 25.2734,0 c 0,-25.8985 20.7227,-46.6407 46.6406,-46.6407 H 1049.53 c 25.92,0 46.02,20.7422 46.02,46.6407 V 1050.43 c 0,25.25 -20.75,46 -46.02,46 H 96.9531 c -25.9179,0 -46.6406,-20.08 -46.6406,-46 V 97.8516" /><path
         id="path18"
         style="fill:#261c1d;fill-opacity:1;fill-rule:evenodd;stroke:none"
         d="m 655.117,100.254 136.055,318.809 19.453,-8.438 -135.43,-318.8086 m 174.317,34.3356 v 259.219 h 49.902 v -96.562 c 8.438,16.836 27.207,29.824 54.414,29.824 16.211,0 32.422,-6.504 43.438,-15.586 12.304,-10.332 19.454,-25.899 19.454,-48.574 V 125.508 l -49.923,0.644 v 113.399 c 0,23.359 -11.641,33.711 -29.805,33.711 -20.742,0 -36.953,-14.278 -36.953,-44.727 l -0.625,-102.383 z m -721.875,0 v 259.219 h 49.902 V 240.879 l 64.141,71.25 h 59.629 l -66.739,-71.25 76.465,-114.727 h -61.543 l -51.211,81.641 -20.742,-20.703 v -60.938 z m 665.508,423.789 c 47.929,0 102.363,35.645 102.363,189.883 0,147.071 -53.75,185.313 -99.141,185.313 -50.547,0 -99.14,-45.352 -99.14,-187.266 0,-92.012 18.808,-132.851 35,-153.574 18.144,-23.32 42.753,-34.356 60.918,-34.356 z m -449.063,-423.789 0.645,185.977 h 48.593 l 1.289,-23.965 c 9.727,18.77 26.582,29.824 51.875,29.824 24.61,0 45.352,-12.968 55.079,-32.402 10.976,20.059 31.074,32.402 56.992,32.402 33.047,0 58.34,-22.695 58.984,-61.582 l 0.645,-130.254 h -49.239 v 116.661 c 0,21.386 -11.015,31.738 -27.871,31.738 -20.097,0 -35.019,-14.258 -35.019,-37.598 V 126.152 h -49.239 v 111.446 c 0,14.922 -1.289,18.808 -2.578,20.742 -3.261,9.082 -11.66,15.547 -24.629,15.547 -20.078,0 -35,-13.594 -35,-40.157 l -0.625,-107.578 z m -191.152,527.481 89.414,1.933 c -1.289,-66.738 34.336,-105.625 88.125,-105.625 49.883,0 84.258,36.954 84.258,82.305 0,32.402 -12.989,57.031 -40.86,72.578 -12.929,6.485 -30.429,12.969 -75.82,12.324 v 70.606 c 76.484,-5.176 103.047,35 103.047,73.242 0,36.289 -26.563,69.981 -70.625,69.981 -43.438,0 -77.11,-36.27 -77.11,-95.918 l -86.836,3.906 c 0,71.914 38.223,169.765 160.704,169.765 55.742,0 90.703,-16.191 114.707,-36.933 34.98,-30.449 49.218,-72.578 49.218,-104.981 0,-30.449 -9.707,-57.031 -27.187,-77.109 -12.988,-15.547 -27.207,-25.918 -66.094,-32.402 67.383,-2.598 115.332,-58.965 115.332,-132.832 0,-42.129 -16.191,-82.95 -47.949,-112.11 -27.871,-27.207 -65.449,-46.015 -133.496,-46.015 -62.207,0 -101.094,19.453 -128.301,47.968 -29.16,30.469 -50.527,80.352 -50.527,139.317 z M 797.695,465.059 c -104.336,0 -196.367,85.527 -196.367,272.812 0,187.91 90.703,273.459 196.367,273.459 100.43,0 193.731,-87.482 193.731,-272.814 0,-186.621 -92.676,-273.457 -193.731,-273.457" /></g></g></svg>