<?xml version="1.0" encoding="UTF-8"?>
<svg width="744.09" height="1052.4" fill-rule="evenodd" image-rendering="optimizeQuality" shape-rendering="geometricPrecision" text-rendering="geometricPrecision" viewBox="0 0 82678 116930" xmlns="http://www.w3.org/2000/svg">
 <path d="m62473 35816c2467 0 4480 2012 4480 4480 0 2467-2013 4479-4480 4479-1848 0-3441-1129-4124-2733h-10530v-2885h2181c-826-2480-1968-1254-4383-1420l-851-4546c5194 794 7649 2234 8148 5966h5227c506-1919 2258-3341 4332-3341z"/>
 <path d="m68015 38094a27182 27182 0 1 0 -54364 0 27182 27182 0 1 0 54364 0" fill="none" stroke="#000" stroke-width="30"/>
 <path d="m18662 35816v-10327c1311 4259 3079 7959 8049 7745h12604v5163h-12604c-4970-213-6738 3486-8049 7745v-10326z"/>
 <path d="m34204 41128h10583c1468 0 2670 728 2670 1617v265c0 889-1202 1617-2670 1617h-10583c-1469 0-2670-728-2670-1617v-265c0-889 1201-1617 2670-1617z" fill="none" stroke="#000" stroke-width="30"/>
 <path d="m32202 38896h14586c2024 0 3680 1656 3680 3680v602c0 2024-1656 3680-3680 3680h-14586c-2023 0-3679-1656-3679-3680v-602c0-2024 1656-3680 3679-3680zm2001 2232h10584c1468 0 2670 728 2670 1617v265c0 889-1202 1616-2670 1616h-10584c-1468 0-2670-727-2670-1616v-265c0-889 1202-1617 2670-1617z"/>
 <path d="m40833 1192c20325 0 36902 16577 36902 36902 0 20324-16577 36901-36902 36901-20324 0-36901-16577-36901-36901 0-20325 16577-36902 36901-36902zm-14044 13645 36840 38033c2772-4259 4387-9335 4387-14776 0-14972-12211-27183-27183-27183-5133 0-9941 1436-14044 3926zm31835 43780-37736-38958c-4487 4851-7237 11331-7237 18435 0 14971 12211 27182 27182 27182 6794 0 13018-2514 17791-6659z" fill="#f00"/>
</svg>
