<?xml version="1.0" encoding="UTF-8" standalone="no"?>
<svg
   xmlns:dc="http://purl.org/dc/elements/1.1/"
   xmlns:cc="http://creativecommons.org/ns#"
   xmlns:rdf="http://www.w3.org/1999/02/22-rdf-syntax-ns#"
   xmlns:svg="http://www.w3.org/2000/svg"
   xmlns="http://www.w3.org/2000/svg"
   viewBox="0 0 340.98666 340.98666"
   height="340.98666"
   width="340.98666"
   xml:space="preserve"
   id="svg2"
   version="1.1"><metadata
     id="metadata8"><rdf:RDF><cc:Work
         rdf:about=""><dc:format>image/svg+xml</dc:format><dc:type
           rdf:resource="http://purl.org/dc/dcmitype/StillImage" /></cc:Work></rdf:RDF></metadata><defs
     id="defs6" /><g
     transform="matrix(1.3333333,0,0,-1.3333333,0,340.98667)"
     id="g10"><g
       transform="scale(0.1)"
       id="g12"><path
         id="path14"
         style="fill:#ffffff;fill-opacity:1;fill-rule:nonzero;stroke:none"
         d="m 1278.71,2554.55 c 702.74,0 1275.84,-573.11 1275.84,-1275.84 C 2554.55,576.008 1981.45,2.88281 1278.71,2.88281 575.996,2.88281 2.875,576.008 2.875,1278.71 c 0,702.73 573.121,1275.84 1275.835,1275.84 v 0" /><path
         id="path16"
         style="fill:none;stroke:#231f20;stroke-width:5.76000023;stroke-linecap:butt;stroke-linejoin:miter;stroke-miterlimit:2.61310005;stroke-dasharray:none;stroke-opacity:1"
         d="m 1278.71,2554.55 c 702.74,0 1275.84,-573.11 1275.84,-1275.84 C 2554.55,576.008 1981.45,2.88281 1278.71,2.88281 575.996,2.88281 2.875,576.008 2.875,1278.71 c 0,702.73 573.121,1275.84 1275.835,1275.84 z" /><path
         id="path18"
         style="fill:#ed1c24;fill-opacity:1;fill-rule:nonzero;stroke:none"
         d="m 1278.71,2512.07 c 678.97,0 1233.36,-554.39 1233.36,-1233.36 C 2512.07,599.758 1957.68,45.3633 1278.71,45.3633 599.758,45.3633 45.3555,599.758 45.3555,1278.71 c 0,678.97 554.4025,1233.36 1233.3545,1233.36 v 0" /><path
         id="path20"
         style="fill:none;stroke:#ed1c24;stroke-width:5.76000023;stroke-linecap:butt;stroke-linejoin:miter;stroke-miterlimit:2.61310005;stroke-dasharray:none;stroke-opacity:1"
         d="m 1278.71,2512.07 c 678.97,0 1233.36,-554.39 1233.36,-1233.36 C 2512.07,599.758 1957.68,45.3633 1278.71,45.3633 599.758,45.3633 45.3555,599.758 45.3555,1278.71 c 0,678.97 554.4025,1233.36 1233.3545,1233.36 z" /><path
         id="path22"
         style="fill:#ffffff;fill-opacity:1;fill-rule:nonzero;stroke:none"
         d="m 1278.71,2198.88 c 506.9,0 920.16,-413.28 920.16,-920.17 0,-506.862 -413.26,-920.144 -920.16,-920.144 -506.874,0 -920.155,413.282 -920.155,920.144 0,506.89 413.281,920.17 920.155,920.17 v 0" /><path
         id="path24"
         style="fill:none;stroke:#ed1c24;stroke-width:5.76000023;stroke-linecap:butt;stroke-linejoin:miter;stroke-miterlimit:2.61310005;stroke-dasharray:none;stroke-opacity:1"
         d="m 1278.71,2198.88 c 506.9,0 920.16,-413.28 920.16,-920.17 0,-506.862 -413.26,-920.144 -920.16,-920.144 -506.874,0 -920.155,413.282 -920.155,920.144 0,506.89 413.281,920.17 920.155,920.17 z" /><path
         id="path26"
         style="fill:#ed1c24;fill-opacity:1;fill-rule:nonzero;stroke:none"
         d="m 489.594,1149.84 h 686.886 c 12.96,0 22.32,-9.36 22.32,-22.33 v -6.46 c 0,-12.97 -9.36,-22.33 -22.32,-22.33 H 489.594 c -12.957,0 -22.321,9.36 -22.321,22.33 v 6.46 c 0,12.97 9.364,22.33 22.321,22.33 v 0" /><path
         id="path28"
         style="fill:none;stroke:#ed1c24;stroke-width:5.76000023;stroke-linecap:butt;stroke-linejoin:miter;stroke-miterlimit:2.61310005;stroke-dasharray:none;stroke-opacity:1"
         d="m 489.594,1149.84 h 686.886 c 12.96,0 22.32,-9.36 22.32,-22.33 v -6.46 c 0,-12.97 -9.36,-22.33 -22.32,-22.33 H 489.594 c -12.957,0 -22.321,9.36 -22.321,22.33 v 6.46 c 0,12.97 9.364,22.33 22.321,22.33 z" /><path
         id="path30"
         style="fill:#ed1c24;fill-opacity:1;fill-rule:nonzero;stroke:none"
         d="m 509.758,1068.49 h 114.48 c 0,-20.88 0,-40.33 0,-61.94 0,-8.628 -12.242,-15.835 -18.718,-15.112 -29.524,0 -48.247,0 -77.043,0 -9.36,0.722 -18.719,7.929 -18.719,17.282 v 59.77 0" /><path
         id="path32"
         style="fill:none;stroke:#ed1c24;stroke-width:5.76000023;stroke-linecap:butt;stroke-linejoin:miter;stroke-miterlimit:2.61310005;stroke-dasharray:none;stroke-opacity:1"
         d="m 509.758,1068.49 h 114.48 c 0,-20.88 0,-40.33 0,-61.94 0,-8.628 -12.242,-15.835 -18.718,-15.112 -29.524,0 -48.247,0 -77.043,0 -9.36,0.722 -18.719,7.929 -18.719,17.282 v 59.77 z" /><path
         id="path34"
         style="fill:#ed1c24;fill-opacity:1;fill-rule:nonzero;stroke:none"
         d="m 1043.28,1068.49 h 114.48 c 0,-20.88 0,-40.33 0,-61.94 0,-8.628 -12.24,-15.835 -18.72,-15.112 -29.52,0 -48.24,0 -77.04,0 -9.36,0.722 -18.72,7.929 -18.72,17.282 v 59.77 0" /><path
         id="path36"
         style="fill:none;stroke:#ed1c24;stroke-width:5.76000023;stroke-linecap:butt;stroke-linejoin:miter;stroke-miterlimit:2.61310005;stroke-dasharray:none;stroke-opacity:1"
         d="m 1043.28,1068.49 h 114.48 c 0,-20.88 0,-40.33 0,-61.94 0,-8.628 -12.24,-15.835 -18.72,-15.112 -29.52,0 -48.24,0 -77.04,0 -9.36,0.722 -18.72,7.929 -18.72,17.282 v 59.77 z" /><path
         id="path38"
         style="fill:#ed1c24;fill-opacity:1;fill-rule:nonzero;stroke:none"
         d="m 565.918,1375.92 -38.883,-6.48 c 21.602,51.84 41.758,103.68 63.36,155.52 15.839,21.6 23.761,26.64 48.242,35.28 64.078,2.88 125.281,6.48 187.922,6.48 62.636,0 124.558,-2.17 187.921,-6.48 28.08,-6.48 35.28,-10.8 48.23,-30.96 l 79.21,-161.28 -46.08,7.92 c -15.12,35.28 -38.88,74.88 -53.28,110.88 -12.24,17.28 -18.01,25.2 -41.04,30.96 -57.602,2.16 -112.325,4.32 -169.207,4.32 -56.879,0 -115.918,-0.72 -173.512,-4.32 -20.887,-3.6 -30.246,-10.8 -44.645,-29.52 l -48.238,-112.32 v 0" /><path
         id="path40"
         style="fill:none;stroke:#ed1c24;stroke-width:5.76000023;stroke-linecap:butt;stroke-linejoin:miter;stroke-miterlimit:2.61310005;stroke-dasharray:none;stroke-opacity:1"
         d="m 565.918,1375.92 -38.883,-6.48 c 21.602,51.84 41.758,103.68 63.36,155.52 15.839,21.6 23.761,26.64 48.242,35.28 64.078,2.88 125.281,6.48 187.922,6.48 62.636,0 124.558,-2.17 187.921,-6.48 28.08,-6.48 35.28,-10.8 48.23,-30.96 l 79.21,-161.28 -46.08,7.92 c -15.12,35.28 -38.88,74.88 -53.28,110.88 -12.24,17.28 -18.01,25.2 -41.04,30.96 -57.602,2.16 -112.325,4.32 -169.207,4.32 -56.879,0 -115.918,-0.72 -173.512,-4.32 -20.887,-3.6 -30.246,-10.8 -44.645,-29.52 l -48.238,-112.32 z" /><path
         id="path42"
         style="fill:#ed1c24;fill-opacity:1;fill-rule:nonzero;stroke:none"
         d="m 1050.48,1224 h 110.16 c 6.47,0 11.52,5.04 11.52,11.52 v 12.97 c 0,6.46 -5.77,12.95 -11.52,12.95 h -110.88 c 5.76,26.64 12.95,33.11 27.35,37.44 30.96,0 64.81,0 96.49,0 -8.64,22.32 -28.08,40.32 -59.76,50.4 -102.96,6.48 -198.004,12.96 -295.203,13.68 -97.199,0.72 -171.364,-3.6 -264.242,-8.64 -26.637,-11.52 -48.239,-25.2 -61.918,-53.28 h 95.761 c 15.117,-5.76 24.477,-15.84 28.797,-37.43 H 503.277 c -5.761,0 -11.519,-5.77 -11.519,-12.25 v -12.97 c 0,-6.46 5.039,-11.5 11.519,-11.5 h 113.758 c 0,-18.01 -5.039,-35.3 -24.476,-40.34 -33.121,0 -66.243,0 -99.36,0 1.442,-7.91 10.078,-15.84 19.438,-17.26 216.718,0 424.082,0 641.523,0 10.8,4.32 14.39,8.63 19.44,17.26 -33.12,0 -66.24,0 -98.64,0 -15.12,8.66 -21.6,20.88 -24.48,37.45 v 0" /><path
         id="path44"
         style="fill:none;stroke:#ed1c24;stroke-width:5.76000023;stroke-linecap:butt;stroke-linejoin:miter;stroke-miterlimit:2.61310005;stroke-dasharray:none;stroke-opacity:1"
         d="m 1050.48,1224 h 110.16 c 6.47,0 11.52,5.04 11.52,11.52 v 12.97 c 0,6.46 -5.77,12.95 -11.52,12.95 h -110.88 c 5.76,26.64 12.95,33.11 27.35,37.44 30.96,0 64.81,0 96.49,0 -8.64,22.32 -28.08,40.32 -59.76,50.4 -102.96,6.48 -198.004,12.96 -295.203,13.68 -97.199,0.72 -171.364,-3.6 -264.242,-8.64 -26.637,-11.52 -48.239,-25.2 -61.918,-53.28 h 95.761 c 15.117,-5.76 24.477,-15.84 28.797,-37.43 H 503.277 c -5.761,0 -11.519,-5.77 -11.519,-12.25 v -12.97 c 0,-6.46 5.039,-11.5 11.519,-11.5 h 113.758 c 0,-18.01 -5.039,-35.3 -24.476,-40.34 -33.121,0 -66.243,0 -99.36,0 1.442,-7.91 10.078,-15.84 19.438,-17.26 216.718,0 424.082,0 641.523,0 10.8,4.32 14.39,8.63 19.44,17.26 -33.12,0 -66.24,0 -98.64,0 -15.12,8.66 -21.6,20.88 -24.48,37.45 z" /><path
         id="path46"
         style="fill:#ffffff;fill-opacity:1;fill-rule:nonzero;stroke:none"
         d="m 750.957,1288.08 h 168.481 c 12.96,0 22.32,-9.37 22.32,-22.33 v -36.71 c 0,-12.95 -9.36,-22.33 -22.32,-22.33 H 750.957 c -12.957,0 -22.32,9.38 -22.32,22.33 v 36.71 c 0,12.96 9.363,22.33 22.32,22.33 v 0" /><path
         id="path48"
         style="fill:none;stroke:#ed1c24;stroke-width:5.76000023;stroke-linecap:butt;stroke-linejoin:miter;stroke-miterlimit:2.61310005;stroke-dasharray:none;stroke-opacity:1"
         d="m 750.957,1288.08 h 168.481 c 12.96,0 22.32,-9.37 22.32,-22.33 v -36.71 c 0,-12.95 -9.36,-22.33 -22.32,-22.33 H 750.957 c -12.957,0 -22.32,9.38 -22.32,22.33 v 36.71 c 0,12.96 9.363,22.33 22.32,22.33 z" /><path
         id="path50"
         style="fill:#231f20;fill-opacity:1;fill-rule:nonzero;stroke:none"
         d="m 1379.51,1149.84 h 686.88 c 12.97,0 22.32,-9.36 22.32,-22.33 v -6.46 c 0,-12.97 -9.35,-22.33 -22.32,-22.33 h -686.88 c -12.95,0 -22.32,9.36 -22.32,22.33 v 6.46 c 0,12.97 9.37,22.33 22.32,22.33 v 0" /><path
         id="path52"
         style="fill:none;stroke:#231f20;stroke-width:5.76000023;stroke-linecap:butt;stroke-linejoin:miter;stroke-miterlimit:2.61310005;stroke-dasharray:none;stroke-opacity:1"
         d="m 1379.51,1149.84 h 686.88 c 12.97,0 22.32,-9.36 22.32,-22.33 v -6.46 c 0,-12.97 -9.35,-22.33 -22.32,-22.33 h -686.88 c -12.95,0 -22.32,9.36 -22.32,22.33 v 6.46 c 0,12.97 9.37,22.33 22.32,22.33 z" /><path
         id="path54"
         style="fill:#231f20;fill-opacity:1;fill-rule:nonzero;stroke:none"
         d="m 1399.67,1068.49 h 114.49 c 0,-20.88 0,-40.33 0,-61.94 0,-8.628 -12.25,-15.835 -18.73,-15.112 -29.51,0 -48.24,0 -77.03,0 -9.36,0.722 -18.73,7.929 -18.73,17.282 v 59.77 0" /><path
         id="path56"
         style="fill:none;stroke:#231f20;stroke-width:5.76000023;stroke-linecap:butt;stroke-linejoin:miter;stroke-miterlimit:2.61310005;stroke-dasharray:none;stroke-opacity:1"
         d="m 1399.67,1068.49 h 114.49 c 0,-20.88 0,-40.33 0,-61.94 0,-8.628 -12.25,-15.835 -18.73,-15.112 -29.51,0 -48.24,0 -77.03,0 -9.36,0.722 -18.73,7.929 -18.73,17.282 v 59.77 z" /><path
         id="path58"
         style="fill:#231f20;fill-opacity:1;fill-rule:nonzero;stroke:none"
         d="m 1933.2,1068.49 h 114.48 c 0,-20.88 0,-40.33 0,-61.94 0,-8.628 -12.25,-15.835 -18.72,-15.112 -29.53,0 -48.24,0 -77.05,0 -9.35,0.722 -18.71,7.929 -18.71,17.282 v 59.77 0" /><path
         id="path60"
         style="fill:none;stroke:#231f20;stroke-width:5.76000023;stroke-linecap:butt;stroke-linejoin:miter;stroke-miterlimit:2.61310005;stroke-dasharray:none;stroke-opacity:1"
         d="m 1933.2,1068.49 h 114.48 c 0,-20.88 0,-40.33 0,-61.94 0,-8.628 -12.25,-15.835 -18.72,-15.112 -29.53,0 -48.24,0 -77.05,0 -9.35,0.722 -18.71,7.929 -18.71,17.282 v 59.77 z" /><path
         id="path62"
         style="fill:#231f20;fill-opacity:1;fill-rule:nonzero;stroke:none"
         d="m 1455.84,1375.92 -38.89,-6.48 c 21.6,51.84 41.76,103.68 63.36,155.52 15.84,21.6 23.77,26.64 48.24,35.28 64.09,2.88 125.28,6.48 187.93,6.48 62.64,0 124.56,-2.17 187.91,-6.48 28.09,-6.48 35.28,-10.8 48.25,-30.96 l 79.2,-161.28 -46.08,7.92 c -15.12,35.28 -38.88,74.88 -53.28,110.88 -12.25,17.28 -18.01,25.2 -41.03,30.96 -57.62,2.16 -112.33,4.32 -169.2,4.32 -56.9,0 -115.94,-0.72 -173.54,-4.32 -20.88,-3.6 -30.23,-10.8 -44.63,-29.52 l -48.24,-112.32 v 0" /><path
         id="path64"
         style="fill:none;stroke:#231f20;stroke-width:5.76000023;stroke-linecap:butt;stroke-linejoin:miter;stroke-miterlimit:2.61310005;stroke-dasharray:none;stroke-opacity:1"
         d="m 1455.84,1375.92 -38.89,-6.48 c 21.6,51.84 41.76,103.68 63.36,155.52 15.84,21.6 23.77,26.64 48.24,35.28 64.09,2.88 125.28,6.48 187.93,6.48 62.64,0 124.56,-2.17 187.91,-6.48 28.09,-6.48 35.28,-10.8 48.25,-30.96 l 79.2,-161.28 -46.08,7.92 c -15.12,35.28 -38.88,74.88 -53.28,110.88 -12.25,17.28 -18.01,25.2 -41.03,30.96 -57.62,2.16 -112.33,4.32 -169.2,4.32 -56.9,0 -115.94,-0.72 -173.54,-4.32 -20.88,-3.6 -30.23,-10.8 -44.63,-29.52 l -48.24,-112.32 z" /><path
         id="path66"
         style="fill:#231f20;fill-opacity:1;fill-rule:nonzero;stroke:none"
         d="m 1940.39,1224 h 110.16 c 6.48,0 11.52,5.04 11.52,11.52 v 12.97 c 0,6.46 -5.76,12.95 -11.52,12.95 h -110.88 c 5.76,26.64 12.97,33.11 27.36,37.44 30.96,0 64.81,0 96.49,0 -8.64,22.32 -28.09,40.32 -59.77,50.4 -102.95,6.48 -197.99,12.96 -295.2,13.68 -97.2,0.72 -171.36,-3.6 -264.23,-8.64 -26.64,-11.52 -48.25,-25.2 -61.92,-53.28 h 95.76 c 15.12,-5.76 24.48,-15.84 28.79,-37.43 H 1393.2 c -5.76,0 -11.52,-5.77 -11.52,-12.25 v -12.97 c 0,-6.46 5.04,-11.5 11.52,-11.5 h 113.75 c 0,-18.01 -5.04,-35.3 -24.47,-40.34 -33.12,0 -66.25,0 -99.35,0 1.42,-7.91 10.07,-15.84 19.43,-17.26 216.72,0 424.08,0 641.52,0 10.8,4.32 14.4,8.63 19.44,17.26 -33.13,0 -66.23,0 -98.64,0 -15.11,8.66 -21.6,20.88 -24.49,37.45 v 0" /><path
         id="path68"
         style="fill:none;stroke:#231f20;stroke-width:5.76000023;stroke-linecap:butt;stroke-linejoin:miter;stroke-miterlimit:2.61310005;stroke-dasharray:none;stroke-opacity:1"
         d="m 1940.39,1224 h 110.16 c 6.48,0 11.52,5.04 11.52,11.52 v 12.97 c 0,6.46 -5.76,12.95 -11.52,12.95 h -110.88 c 5.76,26.64 12.97,33.11 27.36,37.44 30.96,0 64.81,0 96.49,0 -8.64,22.32 -28.09,40.32 -59.77,50.4 -102.95,6.48 -197.99,12.96 -295.2,13.68 -97.2,0.72 -171.36,-3.6 -264.23,-8.64 -26.64,-11.52 -48.25,-25.2 -61.92,-53.28 h 95.76 c 15.12,-5.76 24.48,-15.84 28.79,-37.43 H 1393.2 c -5.76,0 -11.52,-5.77 -11.52,-12.25 v -12.97 c 0,-6.46 5.04,-11.5 11.52,-11.5 h 113.75 c 0,-18.01 -5.04,-35.3 -24.47,-40.34 -33.12,0 -66.25,0 -99.35,0 1.42,-7.91 10.07,-15.84 19.43,-17.26 216.72,0 424.08,0 641.52,0 10.8,4.32 14.4,8.63 19.44,17.26 -33.13,0 -66.23,0 -98.64,0 -15.11,8.66 -21.6,20.88 -24.49,37.45 z" /><path
         id="path70"
         style="fill:#ffffff;fill-opacity:1;fill-rule:nonzero;stroke:none"
         d="m 1640.88,1288.08 h 168.48 c 12.96,0 22.32,-9.37 22.32,-22.33 v -36.71 c 0,-12.95 -9.36,-22.33 -22.32,-22.33 h -168.48 c -12.97,0 -22.33,9.38 -22.33,22.33 v 36.71 c 0,12.96 9.36,22.33 22.33,22.33 v 0" /><path
         id="path72"
         style="fill:none;stroke:#231f20;stroke-width:5.76000023;stroke-linecap:butt;stroke-linejoin:miter;stroke-miterlimit:2.61310005;stroke-dasharray:none;stroke-opacity:1"
         d="m 1640.88,1288.08 h 168.48 c 12.96,0 22.32,-9.37 22.32,-22.33 v -36.71 c 0,-12.95 -9.36,-22.33 -22.32,-22.33 h -168.48 c -12.97,0 -22.33,9.38 -22.33,22.33 v 36.71 c 0,12.96 9.36,22.33 22.33,22.33 z" /></g></g></svg>